<svg width="20" height="20" viewBox="0 0 20 20" fill="none" xmlns="http://www.w3.org/2000/svg">
<path d="M14.0134 4.21782C14.7267 4.16557 15.4 4.44586 15.7751 5.08305C16.2171 5.83411 15.9243 6.77647 15.6159 7.59477L15.194 8.71391C14.8222 9.89278 14.8222 11.162 15.194 12.3409L15.2673 12.5743C15.6234 13.703 15.2129 14.9376 14.2585 15.6075C13.5282 16.1198 12.5687 16.1313 11.8269 15.6368C11.3116 15.2933 10.7682 14.9351 10.1491 14.92C10.1449 14.9199 10.1407 14.92 10.1364 14.92L10.1062 14.919C10.0917 14.9191 10.0767 14.9196 10.0622 14.92C9.44334 14.9352 8.90058 15.2934 8.38546 15.6368C7.64359 16.1313 6.68413 16.1198 5.95381 15.6075C4.99927 14.9377 4.58796 13.703 4.94405 12.5743L5.01827 12.3409C5.39015 11.162 5.39007 9.89275 5.01827 8.71391L4.59639 7.59477C4.28799 6.77647 3.99519 5.83411 4.43721 5.08305C4.81235 4.44594 5.48567 4.16555 6.19893 4.21782C6.92704 4.27132 7.5478 4.96236 7.89034 5.50883L7.91182 5.53715C8.05644 5.7329 8.34401 5.7294 8.48409 5.53032C8.82465 4.99104 9.43439 4.60597 10.1062 4.60063H10.1374C10.7961 4.6167 11.392 4.99946 11.7273 5.53032C11.8672 5.72972 12.1558 5.73301 12.3005 5.53715L12.321 5.50883C12.6636 4.96227 13.2851 4.27119 14.0134 4.21782ZM8.50655 8.02543C8.05363 8.02543 7.68636 8.72943 7.68624 9.5977C7.68624 10.4662 8.05355 11.1709 8.50655 11.1709C8.95939 11.1706 9.32686 10.466 9.32686 9.5977C9.32674 8.72964 8.95931 8.02578 8.50655 8.02543ZM11.7048 8.02543C11.252 8.02576 10.8846 8.72963 10.8845 9.5977C10.8845 10.466 11.2519 11.1706 11.7048 11.1709C12.1578 11.1709 12.5251 10.4662 12.5251 9.5977C12.525 8.72943 12.1577 8.02543 11.7048 8.02543Z" fill="#D262FF"/>
</svg>
